<svg id="Layer_1" xmlns="http://www.w3.org/2000/svg" xmlns:xlink="http://www.w3.org/1999/xlink" viewBox="0 0 80 47"><style>.st0{clip-path:url(#SVGID_3_);}</style><defs><path id="SVGID_1_" d="M59.1 22.8c.7.4 1.9.9 3.2 1.2 1.3.3 3.5.6 4.9.6 1.4 0 2.6-.2 3.8-.5 1.1-.3 2.1-.8 3-1.5.8-.6 1.5-1.4 1.9-2.3.5-.9.7-2.1.7-3.2 0-1.4-.4-2.6-1.2-3.7-.8-1.1-2.2-1.9-4.1-2.5l-3.8-1.2c-1.4-.5-2.4-.8-2.9-1.3s-.8-1.1-.8-1.8c0-1.1.4-1.8 1.3-2.3.8-.5 2-.6 3.5-.6 1.9 0 3.9.6 5.4 1.3.5.2.8.3 1 .3.4 0 .6-.3.6-.8l.1-1.5c0-.7-.4-1.3-.9-1.5-.4-.3-1.9-.8-3.1-1.1-.5-.1-1.1-.2-1.7-.3-.6-.1-1.2-.1-1.8-.1-1.2 0-2.3.1-3.4.4-1.1.3-2 .8-2.8 1.4-.8.6-1.4 1.3-1.9 2.2-.5.8-.7 1.8-.7 2.9 0 1.4.4 2.6 1.3 3.8.9 1.2 2.3 1.9 4.3 2.6l3.9 1.2c1.3.4 2.2.9 2.7 1.4.5.5.7 1.1.7 1.8 0 1.1-.5 1.9-1.4 2.5-.9.5-2.2.8-3.9.8-1.1 0-4-.4-7.1-1.6-.3-.1-.5-.2-.7-.3-.2-.1-.3-.1-.5-.1-.4 0-.6.4-.6.9v1.3c0 .2.1.5.2.7.1.4.4.6.8.9zm-27.6-.2c.2.5.3.9.6 1 .2.2.6.3 1 .3h2.3c.5 0 .9-.1 1.1-.3.2-.2.4-.5.5-1.1l4.1-16.8 4.1 16.8c.1.5.3.9.5 1.1.2.2.6.3 1.1.3h2.3c.5 0 .8-.1 1-.3.2-.2.4-.5.6-1l6.4-20.2c.1-.3.2-.5.2-.6v-.4c0-.4-.2-.6-.7-.6h-2.5c-.5 0-.8.1-1 .3-.2.2-.4.5-.5 1L48 19.5 43.8 2c-.1-.5-.3-.9-.5-1-.2-.2-.6-.3-1.1-.3h-2.1c-.5 0-.9.1-1.1.3-.2.2-.4.5-.5 1l-4.1 17.3L29.9 2c-.2-.5-.3-.9-.5-1-.2-.2-.6-.3-1-.3h-2.6c-.4 0-.7.2-.7.6 0 .2.1.5.2 1.1l6.2 20.2zM15.1 10.4c-1-.1-1.9-.2-2.8-.2-2.7 0-4.9.7-6.5 2-1.6 1.4-2.4 3.2-2.4 5.4 0 2.1.7 3.8 2 5 1.3 1.3 3.1 1.9 5.3 1.9 3.1 0 5.7-1.2 7.8-3.6.3.6.6 1.1.8 1.5.3.4.6.8 1 1.2.2.2.5.4.8.4.2 0 .4-.1.7-.2l1.7-1.1c.3-.2.5-.5.5-.8 0-.2-.1-.4-.2-.6-.4-.7-.7-1.3-.9-1.9-.2-.6-.3-1.4-.3-2.3V8.6c0-2.9-.7-5-2.2-6.4C18.9.8 16.6.1 13.4.1c-1.5 0-2.8.2-4.1.5-1.4.2-2.5.6-3.4 1.1-.4.2-.6.4-.8.5-.1.2-.2.5-.2 1v1.3c0 .5.2.8.6.8.1 0 .2 0 .4-.1.2 0 .5-.2.9-.3 1-.4 1.9-.7 2.9-.9 1-.2 1.9-.3 2.9-.3 2 0 3.5.4 4.3 1.2.8.7 1.3 2.1 1.3 4.1v1.9c-1.1-.2-2.1-.4-3.1-.5zm3.1 4.6c0 .9-.1 1.6-.3 2.3-.2.6-.5 1.2-.9 1.7-.7.8-1.6 1.4-2.5 1.7-1 .3-1.9.5-2.7.5-1.2 0-2.1-.3-2.8-.9-.7-.6-1-1.5-1-2.8 0-1.3.4-2.3 1.3-3 .9-.7 2.2-1.1 4-1.1.8 0 1.6.1 2.5.2.9.1 1.7.3 2.4.4v1z"/></defs><defs><path id="SVGID_2_" d="M71 35.3c-9.8 4.1-20.5 6.1-30.2 6.1-14.4 0-28.3-3.9-39.6-10.3-1-.6-1.7.4-.9 1.2C10.8 41.5 24.6 47 39.9 47c10.9 0 23.6-3.4 32.4-9.7 1.5-1 .2-2.6-1.3-2zm8.7-4.9c-1-1.2-9.2-2.2-14.2 1.3-.8.5-.6 1.3.2 1.2 2.8-.3 9.1-1.1 10.2.3 1.1 1.4-1.2 7.2-2.3 9.8-.3.8.4 1.1 1.1.5 4.7-3.8 6-11.9 5-13.1z"/></defs><use xlink:href="#SVGID_1_" overflow="visible" fill="#FFF"/><use xlink:href="#SVGID_2_" overflow="visible" fill="#F8991D"/><clipPath id="SVGID_3_"><use xlink:href="#SVGID_1_" overflow="visible"/></clipPath><clipPath id="SVGID_4_" class="st0"><use xlink:href="#SVGID_2_" overflow="visible"/></clipPath></svg>